<?xml version="1.0" encoding="utf-8"?>
<!-- Generator: Adobe Illustrator 19.0.0, SVG Export Plug-In . SVG Version: 6.00 Build 0)  -->
<svg version="1.1" id="Capa_1" xmlns="http://www.w3.org/2000/svg" xmlns:xlink="http://www.w3.org/1999/xlink" x="0px" y="0px"
	 viewBox="0 0 95 95" style="enable-background:new 0 0 95 95;" xml:space="preserve">
<style type="text/css">
	.st0{fill:#FFFFFF;stroke:#FFFFFF;stroke-width:0.5;stroke-miterlimit:10;}
</style>
<g>
	<path class="st0" d="M5.7,37.2c0.6,1.7,1.7,2.7,2.8,3.2c0.5,1.8,1.5,3,2.8,3.3c0.5,0.1,1,0.2,1.5,0.2c0.5,0,1-0.1,1.4-0.2
		c-0.3,1.6-0.5,3.2-0.5,4.9c0,7.3,3.4,14.3,9.6,19.5V75c0,3.1,2.5,5.7,5.7,5.7h7.2c2.6,0,4.9-1.9,5.5-4.4c4.2,0.7,8.5,0.7,12.7,0
		c0.6,2.5,2.8,4.4,5.5,4.4h7.2c3.1,0,5.7-2.5,5.7-5.7v-6.9c3.1-2.7,5.5-5.8,7.2-9.2h2.5c0,0,0.1,0,0.1,0h1.5c3.1,0,5.7-2.5,5.7-5.7
		V41.7c0-3.1-2.5-5.7-5.7-5.7h-5.3c-1.8-3-4.3-5.7-7.3-8V15.3c0-0.4-0.2-0.7-0.6-0.9c-0.4-0.1-0.8-0.1-1,0.2l-8.2,8.2
		c-4.2-1.5-8.8-2.3-13.6-2.3c-15.3,0-28.2,8.2-32.7,19.6c-0.2,0.5-0.4,1-0.5,1.5c-0.8,0.3-1.9,0.5-3,0.3c-0.4-0.1-0.7-0.4-1-0.9
		c0,0,0,0,0.1,0c1.6,0,3-0.7,3.7-1.8c0.1-0.2,0.2-0.4,0.3-0.6c0.5-1.4,0.2-2.9-0.9-3.8c-1.1-0.9-2.5-1.1-3.7-0.5
		c-0.1,0-0.2,0.1-0.3,0.1c-1,0.6-1.5,2-1.6,3.5c-0.3-0.3-0.6-0.8-0.8-1.3c-0.4-1.2-0.5-2.1-0.1-2.8c0.3-0.7,1-0.9,1-0.9
		c0.2,0,0.3-0.1,0.4-0.2c0.3-0.2,0.4-0.6,0.3-0.9C9,31.2,8.5,30.9,7.9,31c-0.1,0-1.5,0.4-2.2,1.8C5.1,34,5.1,35.5,5.7,37.2z
		 M13.1,37.6c0,0.1,0,0.2-0.1,0.3c-0.3,0.7-1.2,1.1-2.2,1.1c-0.1,0-0.3,0-0.6-0.1c-0.2-1.5,0.2-2.7,0.6-2.9c0.2-0.1,0.5-0.2,0.7-0.2
		c0,0,0,0,0,0c0.4,0,0.8,0.2,1.1,0.4C12.9,36.4,13.3,36.8,13.1,37.6z M16.4,43c0.2-0.7,0.4-1.5,0.7-2.2C21.2,30.1,33.5,22.4,48,22.4
		c4.2,0,8.3,0.7,12.1,1.9l-0.9,0.9c-0.4,0.4-0.4,1,0,1.4c0.4,0.4,1,0.4,1.4,0l0.2-0.2l1.4-1.4l0.8-0.8l0.7-0.7l6-6v9.2v1.1V29v1.6
		v0.5c0,0.5,0.4,1,1,1c0.5,0,1-0.4,1-1v-0.5c2.4,2,4.4,4.4,5.9,6.9c0.2,0.3,0.5,0.5,0.8,0.5h5.9c2.1,0,3.7,1.7,3.7,3.7v11.6
		c0,2.1-1.7,3.7-3.7,3.7h-4.8c0,0-0.1,0-0.1,0h0h0h-2.6c-3.3,0-4.7-1.5-5.3-2.4c-0.2-0.4-0.3-0.6-0.3-0.7c-0.2-0.5-0.7-0.8-1.2-0.6
		c-0.5,0.2-0.8,0.7-0.6,1.2c0.1,0.2,1.4,4.4,7.4,4.4h1.2c-1.6,3-3.8,5.6-6.6,8c-0.2,0.2-0.3,0.5-0.3,0.7V75c0,2.1-1.7,3.7-3.7,3.7
		h-7.2c-2,0-3.7-1.6-3.7-3.6c0-0.3-0.1-0.5-0.4-0.7c-0.2-0.2-0.5-0.2-0.8-0.2c-4.6,0.8-9.4,0.8-14,0c-0.1,0-0.1,0-0.2,0
		c-0.2,0-0.4,0.1-0.6,0.2c-0.2,0.2-0.3,0.4-0.4,0.7c-0.1,2-1.7,3.6-3.7,3.6H29c-2.1,0-3.7-1.7-3.7-3.7v-7.3c0-0.3-0.1-0.6-0.3-0.7
		c-6-4.9-9.2-11.5-9.2-18.4C15.7,46.7,15.9,44.8,16.4,43z"/>
	<path id="XMLID_56_" class="st0" d="M62.5,41.3c0,0.5,0.4,1,1,1c0.5,0,0.9-0.4,0.9-0.9c0,0,0,0,0,0c0-0.3,0.1-3.2,3.2-3.2
		c3,0,3.4,2.9,3.5,3.5c0,0,0,0.1,0,0.1c0,0.5,0.5,0.9,1,0.9c0,0,0,0,0.1,0c0.5,0,0.9-0.5,0.9-1c-0.1-1.8-1.4-5.3-5.4-5.3
		C63.6,36.1,62.5,39.5,62.5,41.3z"/>
	<path id="XMLID_55_" class="st0" d="M84.3,41.3v11.5c0,0.5,0.4,1,1,1c0.5,0,1-0.4,1-1V41.3c0-0.5-0.4-1-1-1
		C84.7,40.3,84.3,40.7,84.3,41.3z"/>
	<path id="XMLID_54_" class="st0" d="M54.1,25.8c0.1-0.5-0.2-1-0.7-1.1c-1.2-0.3-7.4-1.4-13.9,0.5c-0.5,0.2-0.8,0.7-0.6,1.2
		c0.1,0.4,0.5,0.7,0.9,0.7c0.1,0,0.2,0,0.3,0c6.1-1.9,12.3-0.6,12.9-0.5C53.5,26.6,54,26.3,54.1,25.8z"/>
	<path id="XMLID_53_" class="st0" d="M58.4,45.2c0.2,0.5-0.1,1-0.6,1.2c-0.1,0-0.2,0-0.3,0c-0.4,0-0.7-0.3-0.9-0.7
		c-1.2-4-4-6.5-7.1-6.5c-3.6,0-6.6,3.3-7.5,7.9h10.5c0.5,0,1,0.4,1,1c0,0.5-0.4,1-1,1H41.7c0,0.4,0,0.7,0,1.1c0,0.4,0,0.9,0.1,1.3
		h10.7c0.5,0,1,0.4,1,1c0,0.5-0.4,1-1,1H42.1c1,4.4,3.9,7.7,7.4,7.7c2.6,0,5.1-1.8,6.5-5c0.2-0.4,0.5-0.6,0.9-0.5
		c0.1,0,0.2,0,0.3,0.1c0.5,0.2,0.7,0.8,0.5,1.3C56,60.7,52.9,63,49.5,63c-4.5,0-8.3-4.1-9.4-9.6h-2.5c-0.5,0-1-0.4-1-1
		c0-0.5,0.4-1,1-1h2.2c0-0.4,0-0.9,0-1.3c0-0.4,0-0.7,0-1.1h-2.2c-0.5,0-1-0.4-1-1c0-0.5,0.4-1,1-1h2.4c1-5.6,4.8-9.8,9.4-9.8
		C53.4,37.3,56.9,40.4,58.4,45.2z"/>
</g>
</svg>
