<?xml version="1.0" encoding="utf-8"?>
<!-- Generator: Adobe Illustrator 19.0.0, SVG Export Plug-In . SVG Version: 6.00 Build 0)  -->
<svg version="1.1" id="Capa_1" xmlns="http://www.w3.org/2000/svg" xmlns:xlink="http://www.w3.org/1999/xlink" x="0px" y="0px"
	 viewBox="0 0 95 95" style="enable-background:new 0 0 95 95;" xml:space="preserve">
<style type="text/css">
	.st0{fill:none;stroke:#FFFFFF;stroke-width:3;stroke-linecap:round;stroke-linejoin:round;stroke-miterlimit:10;}
	.st1{fill:#FFFFFF;}
</style>
<g>
	<polygon id="XMLID_61_" class="st0" points="33.8,20.2 76.6,20.2 55.2,61.8 	"/>
	<line id="XMLID_60_" class="st0" x1="55.2" y1="61.8" x2="55.2" y2="79.5"/>
	<line id="XMLID_59_" class="st0" x1="43.4" y1="79.5" x2="67" y2="79.5"/>
	<line id="XMLID_58_" class="st0" x1="34.2" y1="13.8" x2="56.1" y2="44.9"/>
	<g>
		<path class="st1" d="M18.4,28.3v51.4c0,0.8,0.5,1.5,1.1,1.5h7.3c0.6,0,1.1-0.7,1.1-1.5V28.3c0-0.8-0.5-1.5-1.1-1.5h-7.3
			C19,26.8,18.4,27.4,18.4,28.3z M20.7,78.2v-9.5h5v9.5H20.7z M25.7,29.8v35.9h-5V29.8H25.7z"/>
		<path id="XMLID_54_" class="st1" d="M18.4,24.1c0,0.8,0.5,1.5,1.1,1.5h7.3c0.6,0,1.1-0.7,1.1-1.5c0-0.8-0.5-1.5-1.1-1.5h-7.3
			C19,22.6,18.4,23.3,18.4,24.1z"/>
		<path id="XMLID_53_" class="st1" d="M18.4,19.9c0,0.8,0.5,1.5,1.1,1.5h7.3c0.6,0,1.1-0.7,1.1-1.5c0-0.8-0.5-1.5-1.1-1.5h-7.3
			C19,18.4,18.4,19.1,18.4,19.9z"/>
	</g>
</g>
</svg>
