<?xml version="1.0" encoding="utf-8"?>
<!-- Generator: Adobe Illustrator 19.0.0, SVG Export Plug-In . SVG Version: 6.00 Build 0)  -->
<svg version="1.1" id="Capa_1" xmlns="http://www.w3.org/2000/svg" xmlns:xlink="http://www.w3.org/1999/xlink" x="0px" y="0px"
	 viewBox="0 0 95 95" style="enable-background:new 0 0 95 95;" xml:space="preserve">
<style type="text/css">
	.st0{fill:#FFFFFF;}
</style>
<g>
	<path class="st0" d="M47.4,12.3c-0.9,0-1.5,0.6-1.5,1.5v16h-3.8v-16c0-0.9-0.6-1.5-1.5-1.5c-0.9,0-1.5,0.6-1.5,1.5v16h-3.8v-16
		c0-0.9-0.6-1.5-1.5-1.5s-1.5,0.6-1.5,1.5v16h-4v-16c0-0.9-0.6-1.5-1.5-1.5c-0.7,0-1.5,0.6-1.5,1.5v17.5c0,5,3.1,9.1,7.5,10.9
		l-1.5,34.8c-0.1,1.6,0.4,3.1,1.6,4.1c1,1.2,2.5,1.8,4.1,1.8s3.1-0.6,4.1-1.8c1-1.2,1.6-2.6,1.6-4.1l-1.5-34.8
		c4.4-1.8,7.5-5.9,7.5-10.9V13.7C48.8,12.9,48.1,12.3,47.4,12.3z M39.1,78.9c-1,1-2.9,1-4,0c-0.6-0.6-0.7-1.3-0.7-2.1l1.5-34.2
		c0.4,0,0.9,0.1,1.3,0.1s0.9,0,1.3-0.1L40,76.9C39.9,77.8,39.7,78.5,39.1,78.9z M37.2,39.9c-4.3,0-7.9-3.1-8.5-7.2h17.2
		C45,36.6,41.5,39.9,37.2,39.9z"/>
	<path class="st0" d="M58.1,12.6c-0.4-0.3-1-0.4-1.6-0.1c-0.4,0.3-0.9,0.7-0.9,1.3v43v24.5c0,0.9,0.6,1.5,1.5,1.5h7
		c0.9,0,1.5-0.6,1.5-1.5V58.2h2.5c0.9,0,1.5-0.6,1.5-1.5V36.1C69.5,26.8,65.3,18.3,58.1,12.6z M62.6,79.8h-4.1V58.2h4.1V79.8z
		 M66.6,55.3h-7.9V17c5.1,5,7.9,11.9,7.9,19.1V55.3z"/>
</g>
</svg>
