<?xml version="1.0" encoding="utf-8"?>
<!-- Generator: Adobe Illustrator 19.0.0, SVG Export Plug-In . SVG Version: 6.00 Build 0)  -->
<svg version="1.1" id="Capa_1" xmlns="http://www.w3.org/2000/svg" xmlns:xlink="http://www.w3.org/1999/xlink" x="0px" y="0px"
	 viewBox="0 0 95 95" style="enable-background:new 0 0 95 95;" xml:space="preserve">
<style type="text/css">
	.st0{fill:#FFFFFF;}
</style>
<g>
	<path id="XMLID_57_" class="st0" d="M30.1,41c-0.6,0-1.1-0.3-1.3-0.9l-1.3-2.9c0-0.1-0.1-0.1-0.1-0.2c-0.7-1.9-0.3-4.1,1-6.1
		c-0.4-1-0.8-2.4-0.6-4c0.1-1.3-0.3-2.1-1-3.5c-0.3-0.6-0.6-1.2-0.9-1.9c-0.1-0.1-0.1-0.3-0.1-0.4l-1.8-4c-0.3-0.7,0-1.6,0.7-1.9
		l5.5-2.5c0.4-0.2,0.8-0.2,1.1,0c0.4,0.1,0.6,0.4,0.8,0.8l1.8,4c0.1,0.1,0.2,0.2,0.2,0.3c0.3,0.7,0.6,1.4,0.8,2
		c0.6,1.5,0.9,2.3,1.9,3.1c1.2,0.9,2,2.2,2.5,3.1c2.4,0.3,4.2,1.5,5.2,3.3c0,0.1,0.1,0.1,0.1,0.2l4.2,9.4c0.3,0.7,0,1.6-0.7,1.9
		c-0.7,0.3-1.6,0-1.9-0.7l-4.1-9.2c0,0,0-0.1,0-0.1c-0.5-1.1-1.9-1.8-3.7-1.9c-0.6,0-1.1-0.4-1.3-0.9c-0.3-0.7-0.9-1.9-2-2.7
		c-1.7-1.3-2.3-2.7-2.9-4.3c-0.2-0.4-0.4-0.9-0.6-1.5c-0.1-0.1-0.2-0.2-0.2-0.3l-1.4-3l-2.9,1.3l1.4,3c0.1,0.1,0.1,0.3,0.1,0.4
		c0.2,0.5,0.5,1,0.7,1.4c0.8,1.6,1.5,2.9,1.3,5.1c-0.1,1.3,0.4,2.6,0.7,3.3c0.3,0.5,0.2,1.1-0.2,1.6c-1.1,1.4-1.5,2.9-1,4
		c0,0,0,0.1,0,0.1l1.2,2.7c0.3,0.7,0,1.6-0.7,1.9C30.5,41,30.3,41,30.1,41z"/>
	<path id="XMLID_56_" class="st0" d="M63.1,40.4c-0.2,0-0.3,0-0.5-0.1c-0.4-0.1-0.7-0.4-0.9-0.8c-0.2-0.4-0.1-0.8,0.1-1.2
		c0.6-1.1,0.4-2.6-0.6-4.1c-0.3-0.5-0.3-1.1,0-1.6c0.3-0.5,1.1-1.8,1.1-3.2c0.1-2.2,0.9-3.4,1.9-4.9c0.3-0.4,0.6-0.8,0.9-1.3
		c0-0.1,0.1-0.2,0.1-0.3L67,20l-2.7-1.6l-1.7,2.9c-0.1,0.1-0.2,0.2-0.3,0.3c-0.3,0.5-0.5,0.9-0.7,1.3c-0.8,1.5-1.5,2.9-3.4,4
		c-1.2,0.7-2,2-2.3,2.5c-0.3,0.5-0.8,0.8-1.4,0.8c-1.8-0.1-3.2,0.4-3.9,1.5c0,0,0,0.1-0.1,0.1l-2.9,4.9c-0.4,0.7-1.3,0.9-2,0.5
		c-0.7-0.4-0.9-1.3-0.5-2l3-5c0-0.1,0.1-0.1,0.1-0.2c1.1-1.7,3.2-2.6,5.5-2.7c0.6-0.9,1.5-2,2.9-2.8c1.2-0.7,1.5-1.4,2.3-2.8
		c0.3-0.5,0.6-1.2,1-1.8c0.1-0.1,0.2-0.2,0.3-0.3l2.2-3.7c0.4-0.7,1.3-0.9,2-0.5l5.2,3.1c0.7,0.4,0.9,1.3,0.5,2L67.9,24
		c0,0.1-0.1,0.2-0.1,0.4c-0.4,0.7-0.8,1.3-1.1,1.8c-0.9,1.3-1.3,2-1.4,3.3c0,1.5-0.6,2.9-1.1,3.9c1.1,2.1,1.2,4.4,0.3,6.2
		C64.2,40.1,63.7,40.4,63.1,40.4z"/>
	<path class="st0" d="M59.9,82.2H29.7c-0.7,0-1.3-0.5-1.4-1.2l-6-41.2c-0.1-0.4,0.1-0.8,0.3-1.2c0.3-0.3,0.7-0.5,1.1-0.5h42.1
		c0.4,0,0.8,0.2,1.1,0.5c0.3,0.3,0.4,0.7,0.3,1.2l-6,41.2C61.2,81.7,60.6,82.2,59.9,82.2z M31,79.3h27.7L64.2,41H25.4L31,79.3z"/>
	<path id="XMLID_53_" class="st0" d="M66.4,72.1c-9.4,0-22.4-18.6-24-20.9c-0.5-0.7-0.3-1.6,0.4-2c0.7-0.5,1.6-0.3,2,0.4
		c6,8.7,17.5,21.7,22.9,19.4c1.1-0.5,1.7-1.2,2-2.2c0.9-4.1-4.5-11.5-6.7-14c-0.5-0.6-0.5-1.5,0.1-2c0.6-0.5,1.5-0.5,2,0.1
		c0.9,1,8.8,10.3,7.4,16.5c-0.4,1.9-1.7,3.3-3.6,4.2C68.1,71.9,67.3,72.1,66.4,72.1z"/>
</g>
</svg>
