<?xml version="1.0" encoding="utf-8"?>
<!-- Generator: Adobe Illustrator 19.0.0, SVG Export Plug-In . SVG Version: 6.00 Build 0)  -->
<svg version="1.1" id="Capa_1" xmlns="http://www.w3.org/2000/svg" xmlns:xlink="http://www.w3.org/1999/xlink" x="0px" y="0px"
	 viewBox="0 0 95 95" style="enable-background:new 0 0 95 95;" xml:space="preserve">
<style type="text/css">
	.st0{fill:#FFFFFF;stroke:#FFFFFF;stroke-width:0.75;stroke-miterlimit:10;}
</style>
<g transform="translate(0,-952.36218)">
	<path class="st0" d="M47.1,974.4l-46,17.4c-0.8,0.3-0.8,1.6,0,1.9l6.5,2.5v12.2c-0.6,0.4-1,1-1,1.8c0,1.1,0.9,2,2,2s2-0.9,2-2
		c0-0.8-0.4-1.4-1-1.8v-11.4l8.2,3.1v14.2c0,1.6,1.1,2.9,2.6,4.2c1.6,1.3,3.7,2.4,6.4,3.5c5.3,2.1,12.6,3.6,20.6,3.6
		s15.3-1.5,20.6-3.6c2.7-1,4.8-2.2,6.4-3.5c1.6-1.3,2.6-2.6,2.6-4.2V1000l16.7-6.3c0.8-0.3,0.8-1.6,0-1.9l-46-17.4
		C47.5,974.2,47.2,974.3,47.1,974.4z M47.5,976.4l43.1,16.3L47.5,1009L4.4,992.7L47.5,976.4z M19.9,1000.8l27.3,10.3
		c0.2,0.1,0.5,0.1,0.7,0l27.3-10.3v13.4c0,0.6-0.5,1.5-1.9,2.6s-3.3,2.2-5.8,3.2c-5,2-12.1,3.5-19.9,3.5s-14.9-1.5-19.9-3.5
		c-2.5-1-4.5-2.1-5.8-3.2c-1.3-1.1-1.9-2-1.9-2.6V1000.8z"/>
</g>
</svg>
