<?xml version="1.0" encoding="utf-8"?>
<!-- Generator: Adobe Illustrator 19.0.0, SVG Export Plug-In . SVG Version: 6.00 Build 0)  -->
<svg version="1.1" id="Capa_1" xmlns="http://www.w3.org/2000/svg" xmlns:xlink="http://www.w3.org/1999/xlink" x="0px" y="0px"
	 viewBox="0 0 95 95" style="enable-background:new 0 0 95 95;" xml:space="preserve">
<style type="text/css">
	.st0{fill:#FFFFFF;}
	.st1{fill:#FFFFFF;stroke:#FFFFFF;stroke-width:0.25;stroke-miterlimit:10;}
</style>
<g>
	<g>
		<path class="st0" d="M77.5,36.2l8.8,5.4l1.9-3.2L47.5,13.3L30.7,23.6v-6.6h-9.7v12.5l-14,8.6l1.9,3.2l8.8-5.4v41.9H7.8v3.7h9.7
			h33.3h17.2h9.4h9.7v-3.7h-9.7V36.2z M24.7,21h2.2v5.1l-2.2,1.3V21z M73.5,78.3h-5.2v-0.2h-3.7c0,0-0.8,0-1,0c-1.1,0-5,0-7.2,0
			c-0.9,0-1.5,0-1.5,0h-3.7h-1.3H21.3V33.9l4.9-3l4.3-2.6L47.3,18l26.2,16.1V78.3z"/>
		<rect id="XMLID_65_" x="67.7" y="78.1" class="st0" width="5.8" height="0.9"/>
	</g>
	<g>
		<path class="st1" d="M29.3,61.7l8.6-8.6l1.9,1.9l2.5-2.5l19.3,19.3l4.8-4.8L47.1,47.7l0.8-0.8l0.2-4.2l1-1l2,2l3.7-3.7l-9.2-9.2
			l-3.7,3.7l2,2l-1.3,1.3l-3.9,0l-8,8l1.6,1.6c-2.1,2.1-6,7-3.4,13.1L29.3,61.7z M44.5,34.5l1.1-1.1l6.6,6.6l-1.1,1.1L44.5,34.5z
			 M44.1,38.8l1-1l2.7,2.7l-1,1L44.1,38.8z M43.6,51.2l2.2-2.2l18,18l-2.2,2.2L43.6,51.2z M33.2,45.8l6.2-6.2l3,0l3.9,3.9l-0.2,2.7
			l-6.3,6.3L33.2,45.8z M30,58.4c-1.2-4.5,1.8-8.2,3.5-9.8l3.2,3.2L30,58.4z"/>
		<path class="st1" d="M29.3,61.7l8.6-8.6l1.9,1.9l2.5-2.5l19.3,19.3l4.8-4.8L47.1,47.7l0.8-0.8l0.2-4.2l1-1l2,2l3.7-3.7l-9.2-9.2
			l-3.7,3.7l2,2l-1.3,1.3l-3.9,0l-8,8l1.6,1.6c-2.1,2.1-6,7-3.4,13.1L29.3,61.7z M44.5,34.5l1.1-1.1l6.6,6.6l-1.1,1.1L44.5,34.5z
			 M44.1,38.8l1-1l2.7,2.7l-1,1L44.1,38.8z M43.6,51.2l2.2-2.2l18,18l-2.2,2.2L43.6,51.2z M33.2,45.8l6.2-6.2l3,0l3.9,3.9l-0.2,2.7
			l-6.3,6.3L33.2,45.8z M30,58.4c-1.2-4.5,1.8-8.2,3.5-9.8l3.2,3.2L30,58.4z"/>
	</g>
</g>
</svg>
