<?xml version="1.0" encoding="utf-8"?>
<!-- Generator: Adobe Illustrator 19.0.0, SVG Export Plug-In . SVG Version: 6.00 Build 0)  -->
<svg version="1.1" id="Capa_1" xmlns="http://www.w3.org/2000/svg" xmlns:xlink="http://www.w3.org/1999/xlink" x="0px" y="0px"
	 viewBox="0 0 95 95" style="enable-background:new 0 0 95 95;" xml:space="preserve">
<style type="text/css">
	.st0{fill:#FFFFFF;stroke:#FFFFFF;stroke-width:0.25;stroke-miterlimit:10;}
	.st1{opacity:1.000001e-002;fill:#FFFFFF;stroke:#FFFFFF;stroke-width:0.25;stroke-miterlimit:10;enable-background:new    ;}
</style>
<g transform="translate(0,-288.53332)">
	<path id="XMLID_62_" class="st0" d="M43.3,301.5c-3.5,0-6.4,3-6.2,6.5l0.3,7.5c0.1,1.3,0.2,2.5,0.3,3.8c0.1,0.6,0.2,1.2,0.3,1.9
		c0.1,0.6,0.7,1.1,1.3,1c0.6-0.1,1.1-0.7,1-1.3c-0.1-0.6-0.2-1.2-0.3-1.8c-0.1-1.2-0.2-2.4-0.3-3.6l-0.3-7.5
		c-0.1-2.3,1.7-4.1,3.9-4.1c5.1,0,8.7,1.3,13.8,3.5c0,0,0,0,0,0c1.9,0.8,4.1,0.8,6,0c4.1-1.7,8.9-4,13.7-3.6c0,0,0.1,0,0.1,0
		c2.2,0,4,1.8,3.9,4.1l-0.3,7.5c-0.4,9.7-3.8,19-9.8,26.7l-0.2,0.3c-2.7,3.4-6.6,5.1-10.5,5.1c-0.5,0-1,0-1.4-0.1
		c-0.6-0.1-1.2,0.4-1.3,1c-0.1,0.6,0.4,1.2,1,1.3l0,0c0.6,0.1,1.1,0.1,1.7,0.1c4.6,0,9.2-2,12.3-6l0.2-0.3c6.2-8,9.8-17.8,10.3-28
		l0.3-7.5c0.1-3.5-2.7-6.5-6.2-6.5c-5.6-0.5-10.8,2.1-14.7,3.7c-1.4,0.6-2.9,0.5-4.3,0h0C52.9,303,48.8,301.5,43.3,301.5z"/>
	<path id="XMLID_61_" class="st1" d="M64.8,315.3c-0.6,0-1.1,0.5-1.1,1.2c0,0.2,0.1,0.4,0.2,0.6c1,1.8,3,2.9,5,2.9
		c2.1,0,4-1.1,5-2.8c0.3-0.5,0.1-1.3-0.4-1.6s-1.3-0.1-1.6,0.4c0,0,0,0,0,0c-0.6,1.1-1.8,1.7-3,1.7c-1.3,0-2.4-0.7-3-1.7
		C65.6,315.5,65.2,315.2,64.8,315.3L64.8,315.3z"/>
	<path id="XMLID_60_" class="st0" d="M63.6,332c-2.3-0.8-4.8-0.8-7.1,0.2c-0.6,0.2-0.9,0.8-0.8,1.4c0.2,0.6,0.8,0.9,1.4,0.8
		c0,0,0.1,0,0.1-0.1c3.7-1.5,7.8-0.1,10,3.5c0.3,0.6,1,0.8,1.5,0.5c0.6-0.3,0.8-1,0.5-1.5c0-0.1-0.1-0.1-0.1-0.2
		C67.8,334.3,65.8,332.8,63.6,332L63.6,332z"/>
	<path class="st0" d="M18,322.3c-3.5,0-6.4,3-6.2,6.5l0.3,7.5c0.4,10.2,4,20,10.3,28l0.2,0.3c6.2,8,18.3,8,24.5,0l0.3-0.3
		c6.2-8,9.8-17.8,10.2-28l0.3-7.5c0.1-3.5-2.7-6.5-6.2-6.5c-5.6-0.5-10.8,2.1-14.7,3.7c-1.4,0.6-2.9,0.6-4.3,0
		C27.5,323.7,23.4,322.3,18,322.3z M18,324.6c5.1,0,8.7,1.3,13.8,3.6c0,0,0,0,0,0c1.9,0.8,4.1,0.8,6,0c4.1-1.7,8.9-4,13.7-3.6
		c0,0,0.1,0,0.1,0c2.2,0,4,1.9,3.9,4.1l-0.3,7.5c-0.4,9.7-3.8,19-9.8,26.7l-0.3,0.3c-5.3,6.9-15.6,6.9-20.9,0l-0.2-0.3
		c-5.9-7.6-9.4-17-9.8-26.7l-0.3-7.5C13.9,326.4,15.7,324.6,18,324.6z"/>
	<path id="XMLID_57_" class="st0" d="M26.2,336.1c-2.1,0-4,1.1-5,2.9c-0.3,0.6-0.1,1.3,0.4,1.6c0.5,0.3,1.3,0.1,1.6-0.4
		c0.6-1.1,1.8-1.7,3-1.7c1.3,0,2.4,0.7,3,1.7c0.3,0.6,0.9,0.9,1.5,0.6c0.6-0.3,0.9-0.9,0.6-1.5c0-0.1-0.1-0.2-0.1-0.2
		C30.1,337.2,28.2,336.1,26.2,336.1z"/>
	<path id="XMLID_56_" class="st0" d="M43.5,336.1c-2.1,0-4,1.1-5,2.9c-0.3,0.6-0.1,1.3,0.4,1.6c0.5,0.3,1.3,0.1,1.6-0.4
		c0.6-1.1,1.8-1.7,3-1.7c1.3,0,2.4,0.7,3,1.7c0.3,0.6,0.9,0.9,1.5,0.6c0.6-0.3,0.9-0.9,0.6-1.5c0-0.1-0.1-0.2-0.1-0.2
		C47.4,337.2,45.5,336.1,43.5,336.1z"/>
	<path id="XMLID_55_" class="st0" d="M26.6,352.2c-0.6,0-1.1,0.6-1.1,1.2c0,0.2,0.1,0.4,0.2,0.6c2,3.2,5.4,5.1,9,5.1
		c3.6,0,7-1.9,9-5.1c0.4-0.5,0.3-1.2-0.2-1.6c-0.5-0.4-1.2-0.3-1.6,0.2c0,0.1-0.1,0.1-0.1,0.2c-1.6,2.6-4.3,4.1-7.1,4.1
		c-2.8,0-5.5-1.5-7.1-4.1C27.5,352.4,27.1,352.2,26.6,352.2L26.6,352.2z"/>
	<path id="XMLID_54_" class="st0" d="M65.2,314.1c-0.6,0.1-1.1,0.7-1,1.3c0.1,0.4,0.4,0.8,0.8,0.9l6.9,2.3c0.6,0.2,1.3-0.1,1.5-0.7
		c0.2-0.6-0.1-1.3-0.7-1.5l0,0l-6.9-2.3C65.6,314.1,65.4,314.1,65.2,314.1L65.2,314.1z"/>
	<path id="XMLID_53_" class="st0" d="M54.9,314.1c-0.1,0-0.2,0-0.3,0.1l-6.9,2.3c-0.6,0.2-0.9,0.9-0.7,1.5c0.2,0.6,0.9,0.9,1.5,0.7
		l6.9-2.3c0.6-0.2,0.9-0.8,0.7-1.5C55.9,314.4,55.4,314.1,54.9,314.1L54.9,314.1z"/>
</g>
</svg>
