<?xml version="1.0" encoding="utf-8"?>
<!-- Generator: Adobe Illustrator 19.0.0, SVG Export Plug-In . SVG Version: 6.00 Build 0)  -->
<svg version="1.1" id="Capa_1" xmlns="http://www.w3.org/2000/svg" xmlns:xlink="http://www.w3.org/1999/xlink" x="0px" y="0px"
	 viewBox="0 0 95 95" style="enable-background:new 0 0 95 95;" xml:space="preserve">
<style type="text/css">
	.st0{fill:#FFFFFF;}
</style>
<g>
	<path class="st0" d="M70,81.8H25c-0.7,0-1.3-0.6-1.3-1.3V51.2l-0.9,0.9c-0.4,0.4-0.9,0.5-1.4,0.3c-2-0.7-10.6-9.4-13.1-12
		C7.9,40,7.8,39.5,8,39c1.3-3.1,11.1-14.7,13.1-17.1c5.3-6.2,16.5-8.6,16.9-8.7c0.4-0.1,0.7,0,1,0.2c1.8,1.3,5,2,8.5,2
		c3.5,0,6.6-0.8,8.5-2c0.3-0.2,0.7-0.3,1-0.2c0.5,0.1,11.7,2.5,16.9,8.7C76.6,25.2,85.7,36,87,39c0.2,0.5,0.1,1.1-0.3,1.4
		c-2.6,2.6-11.2,11.3-13.1,12c-0.5,0.2-1,0.1-1.4-0.3l-0.9-0.9v29.3C71.3,81.2,70.7,81.8,70,81.8z M26.3,79.2h42.3V48.1
		c0-0.5,0.3-1,0.8-1.2c0.5-0.2,1-0.1,1.4,0.3l2.4,2.4c1.9-1.4,6.6-5.9,10.9-10.3c-1.7-2.7-7.2-9.6-12.3-15.7
		c-4.1-4.8-12.8-7.2-15-7.7c-2.3,1.4-5.7,2.2-9.4,2.2s-7.2-0.8-9.4-2.2c-2.2,0.5-10.9,2.9-15,7.7C18,29.7,12.5,36.5,10.8,39.3
		c4.3,4.4,9,8.9,10.9,10.3l2.4-2.4c0.4-0.4,0.9-0.5,1.4-0.3c0.5,0.2,0.8,0.7,0.8,1.2L26.3,79.2z"/>
	<path class="st0" d="M47.5,25.8c-3.7,0-6.5-1.1-8.3-3.2c-2.9-3.4-2.2-8.1-2.2-8.3c0.1-0.4,0.4-0.8,0.8-1c0.4-0.2,0.9-0.1,1.3,0.1
		c1.8,1.3,5,2,8.5,2s6.6-0.8,8.5-2c0.4-0.3,0.8-0.3,1.3-0.1c0.4,0.2,0.7,0.6,0.8,1c0,0.2,0.7,4.9-2.2,8.3
		C54,24.8,51.2,25.8,47.5,25.8z M39.6,16.6c0.1,1.3,0.5,3,1.6,4.3c1.3,1.5,3.4,2.3,6.3,2.3c2.9,0,5-0.8,6.3-2.3
		c1.1-1.3,1.5-3,1.6-4.3c-2.2,0.9-4.9,1.4-7.9,1.4C44.5,18.1,41.7,17.5,39.6,16.6z"/>
	<path class="st0" d="M73.1,52.5c-0.3,0-0.7-0.1-0.9-0.4l-3.2-3.1c-0.3-0.2-0.4-0.6-0.4-0.9v-20c0-0.2,0-5.4,3.8-6.6
		c0.5-0.2,1.1,0,1.4,0.4C76.6,25.2,85.7,36,87,39c0.2,0.5,0.1,1.1-0.3,1.4c-2.6,2.6-11.2,11.3-13.1,12
		C73.4,52.5,73.3,52.5,73.1,52.5z M71.3,47.6l2,2c1.9-1.4,6.6-6,10.9-10.3c-1.6-2.6-6.7-9-11.6-14.9c-1.3,1.1-1.3,3.7-1.3,3.7V47.6z
		"/>
	<path class="st0" d="M21.9,52.5c-0.2,0-0.3,0-0.5-0.1c-2-0.7-10.6-9.4-13.1-12C7.9,40,7.8,39.5,8,39c1.3-3.1,11.1-14.7,13.1-17.1
		c0.3-0.4,0.9-0.6,1.4-0.4c3.8,1.2,3.8,6.4,3.8,6.6v20c0,0.4-0.1,0.7-0.4,0.9l-3.2,3.1C22.5,52.4,22.2,52.5,21.9,52.5z M10.8,39.3
		c4.3,4.4,9,8.9,10.9,10.3l2-2V28.2c0,0-0.1-2.6-1.3-3.7C17.5,30.3,12.4,36.7,10.8,39.3z"/>
	<path id="XMLID_53_" class="st0" d="M37,33.1h-3.7c-0.7,0-1.3,0.6-1.3,1.3v3.7c0,0.7,0.6,1.3,1.3,1.3H37c0.7,0,1.3-0.6,1.3-1.3
		v-3.7C38.2,33.6,37.7,33.1,37,33.1z"/>
</g>
</svg>
