<?xml version="1.0" encoding="utf-8"?>
<!-- Generator: Adobe Illustrator 19.0.0, SVG Export Plug-In . SVG Version: 6.00 Build 0)  -->
<svg version="1.1" id="Capa_1" xmlns="http://www.w3.org/2000/svg" xmlns:xlink="http://www.w3.org/1999/xlink" x="0px" y="0px"
	 viewBox="0 0 95 95" style="enable-background:new 0 0 95 95;" xml:space="preserve">
<style type="text/css">
	.st0{fill:#FFFFFF;}
</style>
<g>
	<path class="st0" d="M68.2,44.4c0-0.9-0.1-1.8-0.3-2.6c0,0,0-0.1,0-0.1c-0.5-2.2-1.7-4.3-3.3-5.9l-3.5-3.4v-1.9
		c1.5-0.8,2.5-1.8,2.5-3c0,0,0,0,0-0.1c0.1-0.8,0.5-8.1-1.9-10.9c0,0-0.1-0.1-0.1-0.1c-2-2.3-8.1-3.5-14.1-3.5
		c-6,0-12.1,1.2-14.1,3.5c0,0-0.1,0.1-0.1,0.1c-2.3,2.8-1.9,10.1-1.9,10.9c0,0,0,0,0,0.1c0.1,1.2,1,2.2,2.5,3v1.9l-3.5,3.4
		c-1.7,1.6-2.8,3.7-3.3,5.9c0,0,0,0.1,0,0.1c-0.2,0.9-0.3,1.7-0.3,2.6v27.4c0,3.6,2.3,6.9,5.7,8.1c3.2,1.1,7,2.3,15,2.3
		s11.8-1.1,15-2.3c3.4-1.2,5.7-4.4,5.7-8.1L68.2,44.4L68.2,44.4z M28.8,44.4c0-0.2,0-0.4,0-0.6c2.4,1.5,8.1,4,18.7,4
		c10.6,0,16.3-2.5,18.7-4c0,0.2,0,0.4,0,0.6v22.5c-0.8,0.5-6.1,3.7-18.7,3.7c-12.6,0-17.9-3.1-18.7-3.7L28.8,44.4z M47.5,21.3
		c-8.3,0-12.9-2.1-12.9-3.3s4.5-3.3,12.9-3.3s12.9,2.1,12.9,3.3C60.4,19.1,55.8,21.3,47.5,21.3z M33.3,27.3
		C33.3,27.3,33.3,27.3,33.3,27.3C33.3,27.2,33.3,27.2,33.3,27.3c-0.1-1.5-0.1-4.7,0.4-7.2c2.3,2.1,8.1,3.1,13.8,3.1
		s11.4-1.1,13.8-3.1c0.5,2.4,0.5,5.7,0.4,7.1c0,0,0,0,0,0c0,0,0,0,0,0c0,0.6-0.8,1.2-2.3,1.8V26c0-0.5-0.4-1-1-1c-0.5,0-1,0.4-1,1
		v3.8c-1,0.3-2.2,0.5-3.5,0.7V27c0-0.5-0.4-1-1-1c-0.5,0-1,0.4-1,1v3.7c-1.1,0.1-2.3,0.2-3.5,0.2v-3.5c0-0.5-0.4-1-1-1
		c-0.5,0-1,0.4-1,1v3.5c-1.2,0-2.4-0.1-3.5-0.2V27c0-0.5-0.4-1-1-1c-0.5,0-1,0.4-1,1v3.4c-1.3-0.2-2.5-0.4-3.5-0.7V26
		c0-0.5-0.4-1-1-1c-0.5,0-1,0.4-1,1v3.1C34.2,28.5,33.3,27.8,33.3,27.3z M31.8,37.2l3.8-3.7c0.2-0.2,0.3-0.4,0.3-0.7v-1.5
		c0.1,0,0.2,0.1,0.3,0.1c0,0,0.1,0,0.1,0c3,1,7.1,1.5,11.2,1.5s8.2-0.5,11.2-1.5c0,0,0.1,0,0.1,0c0.1,0,0.2-0.1,0.3-0.1v1.5
		c0,0.3,0.1,0.5,0.3,0.7l3.8,3.7c1.3,1.2,2.2,2.8,2.7,4.5c-1.5,1-6.9,4.1-18.3,4.1c-11.5,0-16.9-3.1-18.3-4.1
		C29.6,40,30.5,38.4,31.8,37.2z M61.9,78.1c-3.2,1.1-6.7,2.1-14.4,2.1s-11.2-1-14.4-2.1c-2.6-0.9-4.4-3.4-4.4-6.2v-2.7
		c2.4,1.2,8,3.4,18.7,3.4c10.7,0,16.4-2.2,18.7-3.4v2.7C66.2,74.6,64.5,77.1,61.9,78.1z"/>
	<rect id="XMLID_54_" x="44.9" y="51.7" class="st0" width="5.2" height="14.8"/>
	<rect id="XMLID_53_" x="40.1" y="56.5" class="st0" width="14.8" height="5.2"/>
</g>
</svg>
