<?xml version="1.0" encoding="utf-8"?>
<!-- Generator: Adobe Illustrator 19.0.0, SVG Export Plug-In . SVG Version: 6.00 Build 0)  -->
<svg version="1.1" id="Capa_1" xmlns="http://www.w3.org/2000/svg" xmlns:xlink="http://www.w3.org/1999/xlink" x="0px" y="0px"
	 viewBox="0 0 95 95" style="enable-background:new 0 0 95 95;" xml:space="preserve">
<style type="text/css">
	.st0{fill:#FFFFFF;}
	.st1{fill:#FFFFFF;stroke:#FFFFFF;stroke-width:0.25;stroke-miterlimit:10;}
</style>
<g>
	<path class="st0" d="M62.1,13.3H32.9c-2.3,0-4.2,1.9-4.2,4.2v60c0,2.3,1.9,4.2,4.2,4.2h29.2c2.3,0,4.2-1.9,4.2-4.2v-60
		C66.4,15.2,64.4,13.3,62.1,13.3z M64,77.5c0,1.1-0.8,1.9-1.9,1.9H32.9c-1.1,0-1.9-0.8-1.9-1.9V71h33.1L64,77.5L64,77.5z M64,68.7
		H31V21.8h33.1L64,68.7L64,68.7z M64,19.4H31v-1.9c0-1.1,0.8-1.9,1.9-1.9h10.5c0.1,0.4,0.4,0.7,0.9,0.7h6.4c0.4,0,0.8-0.4,0.9-0.7
		H62c1.1,0,1.9,0.8,1.9,1.9L64,19.4L64,19.4z"/>
	<g>
		<path id="XMLID_56_" class="st1" d="M37.3,44l1.1,1.3c5-5.9,13.2-5.9,18.3,0l1.1-1.3C52.2,37.3,43,37.3,37.3,44z"/>
		<path id="XMLID_55_" class="st1" d="M40.9,46.7L42,48c3.1-3.6,8.1-3.6,11.2,0l1.1-1.3C50.6,42.4,44.6,42.4,40.9,46.7z"/>
		<path id="XMLID_54_" class="st1" d="M44.5,49.4l1.1,1.3c1.1-1.3,2.9-1.3,3.9,0l1.1-1.3C49,47.4,46.2,47.4,44.5,49.4z"/>
		<circle id="XMLID_53_" class="st1" cx="47.6" cy="52.8" r="0.9"/>
	</g>
</g>
</svg>
