<?xml version="1.0" encoding="utf-8"?>
<!-- Generator: Adobe Illustrator 19.0.0, SVG Export Plug-In . SVG Version: 6.00 Build 0)  -->
<svg version="1.1" id="Capa_1" xmlns="http://www.w3.org/2000/svg" xmlns:xlink="http://www.w3.org/1999/xlink" x="0px" y="0px"
	 viewBox="0 0 95 95" style="enable-background:new 0 0 95 95;" xml:space="preserve">
<style type="text/css">
	.st0{fill:#FFFFFF;}
</style>
<g>
	<path class="st0" d="M34.5,55.9c-3.1,0-5.8,2.5-5.8,5.8c0,3.1,2.5,5.8,5.8,5.8s5.8-2.5,5.8-5.8S37.8,55.9,34.5,55.9z M34.5,64.6
		c-1.6,0-3-1.3-3-3c0-1.7,1.3-3,3-3c1.6,0,3,1.3,3,3C37.5,63.3,36.2,64.6,34.5,64.6z"/>
	<path class="st0" d="M60.6,55.9c-3.1,0-5.8,2.5-5.8,5.8c0,3.1,2.5,5.8,5.8,5.8c3.1,0,5.8-2.5,5.8-5.8
		C66.2,58.5,63.7,55.9,60.6,55.9z M60.6,64.6c-1.6,0-3-1.3-3-3c0-1.7,1.3-3,3-3c1.6,0,3,1.3,3,3C63.5,63.3,62.1,64.6,60.6,64.6z"/>
	<path class="st0" d="M72.4,78.8l-7.1-5.9h5.5c0.8,0,1.4-0.6,1.4-1.4V51V28.3v-8.5c0-5.8-17.3-6.4-24.8-6.4S22.8,14,22.8,19.8v8.5
		V51v20.7c0,0.8,0.6,1.4,1.4,1.4h5.4L22.5,79c-0.6,0.6-0.7,1.4-0.1,2c0.3,0.3,0.7,0.6,1.1,0.6c0.3,0,0.7-0.1,0.8-0.3l3.7-3.1h39.1
		l3.7,3.1c0.3,0.3,0.6,0.3,0.8,0.3c0.4,0,0.8-0.1,1.1-0.6C73.2,80.3,73.2,79.4,72.4,78.8z M25.6,29.7h20.5v19.8H25.6V29.7z M49,29.7
		h20.5v19.8H49V29.7z M47.5,16.3c14.2,0,21.7,2.3,21.9,3.5v7.1H25.6v-7.1C25.9,18.6,33.4,16.3,47.5,16.3z M25.6,52.4h43.9v17.8H25.6
		V52.4z M31.4,75.2l2.5-2.1h27.2l2.5,2.1H31.4z"/>
	<path id="XMLID_54_" class="st0" d="M52.3,23.5h3.3c0.8,0,1.4-0.6,1.4-1.4s-0.6-1.4-1.4-1.4h-3.3c-0.8,0-1.4,0.6-1.4,1.4
		S51.5,23.5,52.3,23.5z"/>
	<path id="XMLID_53_" class="st0" d="M39.5,23.5H47c0.8,0,1.4-0.6,1.4-1.4s-0.6-1.4-1.4-1.4h-7.5c-0.8,0-1.4,0.6-1.4,1.4
		S38.6,23.5,39.5,23.5z"/>
</g>
</svg>
