<?xml version="1.0" encoding="utf-8"?>
<!-- Generator: Adobe Illustrator 19.0.0, SVG Export Plug-In . SVG Version: 6.00 Build 0)  -->
<svg version="1.1" id="Capa_1" xmlns="http://www.w3.org/2000/svg" xmlns:xlink="http://www.w3.org/1999/xlink" x="0px" y="0px"
	 viewBox="0 0 451 149.2" style="enable-background:new 0 0 451 149.2;" xml:space="preserve">
<style type="text/css">
	.st0{fill:#FFFFFF;}
</style>
<g id="XMLID_1_">
	<path id="XMLID_155_" class="st0" d="M82.1,148.9c-4.7,0-8.6,0-12.8,0c0-21.2,0-42.3,0-64.1c12.8,0.7,25.6-1.5,38.2,1.2
		c11.8,2.6,19.5,11.3,20.4,21.7c1.2,13.2-3.7,21.9-15.7,27.7c-0.6,0.3-1.2,0.6-2,1.2c3.4,3.9,6.7,7.8,10.4,12.1c-5.2,0-9.8,0-15.3,0
		c-2.7-3.1-5.9-6.8-9.1-10.5c-4.7,0-9.1,0-14,0C82.1,141.5,82.1,144.9,82.1,148.9z M82,127.4c7.7-0.1,14.8,0.6,21.9-0.4
		c7.6-1.1,12.9-7.3,13.1-14.6c0.2-7.3-4.7-14.3-11.8-15c-7.6-0.8-15.4-0.2-23.1-0.2C82,107.3,82,117.1,82,127.4z"/>
	<path id="XMLID_152_" class="st0" d="M191.2,149c0-21.7,0-42.6,0-64.2c10.6,0.5,21.1-1.2,31.4,1c16.3,3.5,25,14.5,24.9,31.2
		c-0.1,19.7-12.3,32-32.1,32.1C207.5,149,199.5,149,191.2,149z M204,137c4.1,0,7.9-0.3,11.7,0.1c9.2,0.8,16.5-5,18.9-14.8
		c2.8-11-3.2-23.1-13.2-24.9c-5.6-1-11.5-0.2-17.4-0.2C204,110.4,204,123.3,204,137z"/>
	<path id="XMLID_145_" class="st0" d="M285.8,149c-17.1,1.8-32.9-12.3-32.8-32c0.1-19.6,16.8-32.4,32.7-32.5
		c18-0.1,32.8,16.2,32.7,33C318.3,134.9,303.9,150.8,285.8,149z M306,117.1c0-11.7-8.7-20.8-20.1-20.9c-11.3-0.1-20.4,8.9-20.5,20.6
		c-0.1,11.5,8.9,20.9,20.2,21C296.8,137.9,306,128.7,306,117.1z"/>
	<path id="XMLID_142_" class="st0" d="M16,137.9c0,3.9,0,7.2,0,10.8c-4,0-7.7,0-11.8,0c0-21.1,0-42.3,0-64
		C16.9,85.5,29.6,83.1,42,86c15.2,3.6,21.6,15.3,20.6,27.2c-1.2,14.4-12.6,24.4-27.1,24.7C29.2,138.1,22.9,137.9,16,137.9z
		 M16.4,96.9c0,10.1,0,19.7,0,29.6c7.9-0.2,15.6,0.8,23.2-0.6c8-1.5,12-7.2,11.6-15.4c-0.4-7.1-6.3-13.1-13.6-13.4
		C30.6,96.7,23.6,96.9,16.4,96.9z"/>
	<g id="XMLID_107_">
		<path id="XMLID_171_" class="st0" d="M54-1.1c0.5,1.2,2,1.4,2.2,3.3c2.2,19.6,4.7,39.2,7,58.8c0.1,0.6,0,1.3,0,2.2
			c-4.3,0.7-8.6,0.3-13.2,0.2c-1.4-12.7-2.8-25.2-4.4-38.8c-3.2,9.3-6,17.5-8.9,25.8c-3,0-5.8,0-8.9,0c-3.2-7.9-6.4-15.8-9.5-23.7
			c-0.3,0-0.6,0.1-0.9,0.1c-1.1,12.1-2.3,24.2-3.4,36.5c-4.1,0-7.9,0-12,0c-0.8-7.9,0.7-15.6,1.3-23.3C4.5,26.4,7,12.8,7-1.1
			c3.7,0,7.3,0,11,0c1.7,1.1,3.1,2.3,3.7,4.5c1.3,4.1,2.7,8.2,4.5,12.1c2.2,5,3.3,10.4,6.4,15.5c1.8-5.6,3.4-10.6,5.2-15.6
			C39.8,9.9,40.7,4,44-1.1C47.3-1.1,50.7-1.1,54-1.1z"/>
		<path id="XMLID_167_" class="st0" d="M451,48.9c-4.6,11.4-13.7,15-25.2,14.9c-10.6-0.1-21.2,0-32.7,0c0-21.3,0-42.5,0-63.7
			C405.8,0,418.4-0.1,431-0.3c11.2,3,13.4,13.4,8.9,24.8c5.8,2.1,8.7,7,11.1,12.3C451,40.9,451,44.9,451,48.9z M406.1,51.4
			c8.5,0,16.8,0.5,25-0.2c6.1-0.5,8.8-4.1,8.8-9.4c0-5.3-2.8-9.1-8.8-9.5c-8.4-0.6-16.8-0.2-25.1-0.2
			C406.1,38.8,406.1,45.1,406.1,51.4z M406,9.7c0,4.2,0,7.6,0,11.4c6.2,0,12.1,0.1,18.1,0c6.5-0.1,7.8-1.8,6.3-9
			C423,7.8,414.6,11.1,406,9.7z"/>
		<path id="XMLID_166_" class="st0" d="M295-1.1c2,1.3,1.7,3.3,1.7,5.2c0,15.6,0,31.2,0,47.4c9.5,0,18.7,0,28.2,0c0,4.2,0,8,0,11.9
			c-13.6,0-27,0-40.9,0c0-21.6,0-43.1,0-64.5C287.7-1.1,291.3-1.1,295-1.1z"/>
		<path id="XMLID_165_" class="st0" d="M208-1.1c0.5,1.2,2.1,1.5,2,3.4c-0.2,20-0.2,40-0.2,59.9c0,0.3-0.3,0.6-0.5,1.1
			c-3.6,0-7.4,0-11,0c-1.1-1.4-0.7-2.7-0.7-4c0-18.5,0-37,0-55.4c0-1.8-0.1-3.6,1.4-5C202-1.1,205-1.1,208-1.1z"/>
		<path id="XMLID_151_" class="st0" d="M72.2,0.2C88.8,0.2,105.4,0.1,122,0c0,3.5,0,6.9,0,10.7c-12.3,0-24.4,0-36.8,0
			c0,3.4,0,6.5,0,9.9c9.3,0,18.7,0,28.3,0c1,3.7,0.3,7.2,0.5,11.1c-9.6,0-19.2,0-28.9,0c0,6.4,0,12.3,0,18.6c12.5,0,24.9,0,37.6,0
			c0,4.5,0,8.6,0,13c-16.5,0-33.1,0-50.5,0C72.2,42.3,72.2,21.3,72.2,0.2z"/>
		<path id="XMLID_148_" class="st0" d="M132-0.1c10-0.1,20-0.1,30-0.2c27.6,5.1,30.9,33.9,20.9,50.4c-4.4,7.2-11.4,11.1-19.5,12.6
			c-10.3,1.9-20.8,0.7-31.4,1C132,42.1,132,21,132-0.1z M144.3,51.5c5.1,0,10.2,0.5,15-0.1c8-1,13.2-5.8,15.3-13.7
			c3.6-13.5-3.2-25.2-15.7-26.5c-4.7-0.5-9.6-0.1-14.6-0.1C144.3,24.8,144.3,38,144.3,51.5z"/>
		<path id="XMLID_139_" class="st0" d="M237-0.2c7,0.1,14,0.1,21,0.2c5,17.6,10.1,35.2,15,52.9c1,3.5,2.5,6.8,2.6,10.7
			c-4.6,0-9,0-13.6,0c-1-2.9-1.9-5.7-3-8.7c-7.7,0-15.3,0-23.4,0c-0.9,2.7-2,5.6-3.1,8.7c-4.4,0-8.8,0-13.9,0
			c1.8-6.5,3.5-12.9,5.2-19.2c4-14.5,8.1-28.9,12.1-43.4C236.2,0.5,236.7,0.2,237-0.2z M237.7,42.9c6.7,0,12.9,0,19.8,0
			c-2.9-10.8-5.7-21.2-8.4-31.3c-1.7-0.6-2.8-0.6-3.6,0.3C242.9,22,240.4,32.1,237.7,42.9z"/>
		<path id="XMLID_136_" class="st0" d="M348,0c7-0.1,14-0.1,21-0.2c5,17.3,10,34.6,15,51.9c1.1,3.8,2.1,7.6,3.2,11.8
			c-4.8,0-9.2,0-14,0c-0.8-2.6-1.7-5.4-2.8-8.5c-7.8,0-15.7,0-23.7,0c-1.2,2.9-1.4,5.9-3.2,8.6c-4.3,0-8.8,0-13.6,0
			c3.5-12.5,6.8-24.7,10.2-36.9C342.7,17.7,345.4,8.9,348,0z M368.8,42.9c-2.6-9.7-5.2-19.1-7.7-28.5c-0.5-2.1-0.9-3.9-4.2-3
			c-2.6,10.3-5.2,20.7-7.9,31.5C355.6,42.9,361.8,42.9,368.8,42.9z"/>
	</g>
	<path id="XMLID_133_" class="st0" d="M145.8,140.1c-1,2.9-1.9,5.7-2.9,8.7c-4.6,0-9.2,0-14.1,0c6-21.4,12-42.5,17.9-63.7
		c7.1,0,13.9,0,21.3,0c5.9,21,11.9,42.3,18,63.8c-4.8,0-9.2,0-14,0c-1-2.8-2.1-5.8-3.1-8.7C161.2,140.1,153.6,140.1,145.8,140.1z
		 M147.8,128.7c6.7,0,13.1,0,19.8,0c-2.8-10.7-5.6-21-8.3-31.2c-1.3-0.7-2.4-0.8-3.7,0.1C153,107.8,150.4,118.1,147.8,128.7z"/>
</g>
</svg>
